<?xml version="1.0" encoding="utf-8"?>
<!-- Generator: Adobe Illustrator 19.1.0, SVG Export Plug-In . SVG Version: 6.00 Build 0)  -->
<svg version="1.1" id="US_UK_Download_on_the" xmlns="http://www.w3.org/2000/svg" xmlns:xlink="http://www.w3.org/1999/xlink"
	 x="0px" y="0px" viewBox="-157 356 135 40" style="enable-background:new -157 356 135 40;" xml:space="preserve">
<style type="text/css">
	.st0{fill:#CCCCCC;}
	.st1{fill:#DDDDDD;}
	.st2{font-family:'WorkSans-Regular';}
	.st3{font-size:12px;}
</style>
<g>
	<path class="st0" d="M-26.8,396h-125.5c-2.6,0-4.7-2.1-4.7-4.7v-30.5c0-2.6,2.1-4.7,4.7-4.7h125.5c2.6,0,4.8,2.1,4.8,4.7v30.5
		C-22,393.9-24.2,396-26.8,396L-26.8,396z"/>
	<path class="st0" d="M-23,391.3c0,2.1-1.7,3.8-3.8,3.8h-125.5c-2.1,0-3.8-1.7-3.8-3.8v-30.5c0-2.1,1.7-3.8,3.8-3.8h125.5
		c2.1,0,3.8,1.7,3.8,3.8L-23,391.3L-23,391.3z"/>
	<g>
		<g>
			<path class="st1" d="M-126.9,375.8c0-3.2,2.6-4.8,2.8-4.9c-1.5-2.2-3.9-2.5-4.7-2.5c-2-0.2-3.9,1.2-4.9,1.2c-1,0-2.6-1.2-4.2-1.1
				c-2.1,0-4.1,1.3-5.2,3.2c-2.3,3.9-0.6,9.7,1.6,12.9c1.1,1.6,2.4,3.3,4,3.2c1.6-0.1,2.2-1,4.2-1c1.9,0,2.5,1,4.2,1
				c1.7,0,2.8-1.6,3.9-3.1c1.3-1.8,1.8-3.5,1.8-3.6C-123.5,380.9-126.8,379.6-126.9,375.8z"/>
			<path class="st1" d="M-130.1,366.3c0.9-1.1,1.5-2.6,1.3-4.1c-1.3,0.1-2.8,0.9-3.8,1.9c-0.8,0.9-1.5,2.5-1.3,3.9
				C-132.4,368.2-131,367.4-130.1,366.3z"/>
		</g>
	</g>
	<g>
		<path class="st1" d="M-103.4,387.5h-2.3l-1.2-3.9h-4.3l-1.2,3.9h-2.2l4.3-13.3h2.6L-103.4,387.5z M-107.2,382l-1.1-3.5
			c-0.1-0.4-0.3-1.2-0.7-2.5h0c-0.1,0.6-0.3,1.4-0.6,2.5l-1.1,3.5H-107.2z"/>
		<path class="st1" d="M-92.3,382.6c0,1.6-0.4,2.9-1.3,3.9c-0.8,0.8-1.8,1.3-2.9,1.3c-1.3,0-2.2-0.5-2.7-1.4h0v5.1h-2.1v-10.3
			c0-1,0-2.1-0.1-3.2h1.9l0.1,1.5h0c0.7-1.1,1.8-1.7,3.2-1.7c1.1,0,2.1,0.4,2.8,1.3C-92.7,379.9-92.3,381.1-92.3,382.6z
			 M-94.5,382.7c0-0.9-0.2-1.7-0.6-2.3c-0.5-0.6-1.1-0.9-1.9-0.9c-0.5,0-1,0.2-1.4,0.5c-0.4,0.4-0.7,0.8-0.8,1.4
			c-0.1,0.3-0.1,0.5-0.1,0.6v1.6c0,0.7,0.2,1.3,0.6,1.8c0.4,0.5,1,0.7,1.7,0.7c0.8,0,1.4-0.3,1.9-0.9
			C-94.7,384.5-94.5,383.7-94.5,382.7z"/>
		<path class="st1" d="M-81.3,382.6c0,1.6-0.4,2.9-1.3,3.9c-0.8,0.8-1.8,1.3-2.9,1.3c-1.3,0-2.2-0.5-2.7-1.4h0v5.1h-2.1v-10.3
			c0-1,0-2.1-0.1-3.2h1.9l0.1,1.5h0c0.7-1.1,1.8-1.7,3.2-1.7c1.1,0,2.1,0.4,2.8,1.3C-81.7,379.9-81.3,381.1-81.3,382.6z
			 M-83.5,382.7c0-0.9-0.2-1.7-0.6-2.3c-0.5-0.6-1.1-0.9-1.9-0.9c-0.5,0-1,0.2-1.4,0.5c-0.4,0.4-0.7,0.8-0.8,1.4
			c-0.1,0.3-0.1,0.5-0.1,0.6v1.6c0,0.7,0.2,1.3,0.6,1.8c0.4,0.5,1,0.7,1.7,0.7c0.8,0,1.4-0.3,1.9-0.9
			C-83.7,384.5-83.5,383.7-83.5,382.7z"/>
		<path class="st1" d="M-69,383.8c0,1.1-0.4,2.1-1.2,2.8c-0.9,0.8-2.1,1.2-3.6,1.2c-1.4,0-2.6-0.3-3.4-0.8l0.5-1.8
			c0.9,0.6,2,0.9,3.1,0.9c0.8,0,1.4-0.2,1.9-0.5c0.4-0.4,0.7-0.8,0.7-1.5c0-0.5-0.2-1-0.6-1.4c-0.4-0.4-1-0.7-1.8-1
			c-2.3-0.9-3.5-2.1-3.5-3.8c0-1.1,0.4-2,1.2-2.7c0.8-0.7,1.9-1,3.3-1c1.2,0,2.2,0.2,3,0.6l-0.5,1.7c-0.8-0.4-1.6-0.6-2.5-0.6
			c-0.8,0-1.3,0.2-1.8,0.6c-0.4,0.3-0.5,0.7-0.5,1.2c0,0.5,0.2,1,0.6,1.3c0.4,0.3,1,0.7,1.9,1c1.1,0.5,2,1,2.5,1.6
			C-69.2,382.1-69,382.9-69,383.8z"/>
		<path class="st1" d="M-61.9,379.5h-2.3v4.7c0,1.2,0.4,1.8,1.2,1.8c0.4,0,0.7,0,0.9-0.1l0.1,1.6c-0.4,0.2-1,0.2-1.7,0.2
			c-0.8,0-1.5-0.3-2-0.8c-0.5-0.5-0.7-1.4-0.7-2.6v-4.8h-1.4v-1.6h1.4v-1.8l2.1-0.6v2.4h2.3C-61.9,377.9-61.9,379.5-61.9,379.5z"/>
		<path class="st1" d="M-51.3,382.6c0,1.5-0.4,2.7-1.3,3.6c-0.9,1-2.1,1.5-3.5,1.5c-1.4,0-2.5-0.5-3.4-1.4c-0.8-0.9-1.3-2.1-1.3-3.5
			c0-1.5,0.4-2.7,1.3-3.7c0.9-0.9,2-1.4,3.5-1.4c1.4,0,2.5,0.5,3.4,1.4C-51.7,380-51.3,381.2-51.3,382.6z M-53.5,382.7
			c0-0.9-0.2-1.6-0.6-2.3c-0.4-0.8-1.1-1.1-1.9-1.1c-0.9,0-1.5,0.4-2,1.1c-0.4,0.6-0.6,1.4-0.6,2.3c0,0.9,0.2,1.6,0.6,2.3
			c0.5,0.8,1.1,1.1,1.9,1.1c0.8,0,1.5-0.4,1.9-1.2C-53.7,384.3-53.5,383.6-53.5,382.7z"/>
		<path class="st1" d="M-44.4,379.8c-0.2,0-0.4-0.1-0.7-0.1c-0.8,0-1.3,0.3-1.7,0.9c-0.4,0.5-0.5,1.1-0.5,1.9v5h-2.1l0-6.6
			c0-1.1,0-2.1-0.1-3h1.9l0.1,1.8h0.1c0.2-0.6,0.6-1.1,1.1-1.5c0.5-0.3,1-0.5,1.5-0.5c0.2,0,0.4,0,0.5,0
			C-44.4,377.8-44.4,379.8-44.4,379.8z"/>
		<path class="st1" d="M-34.8,382.3c0,0.4,0,0.7-0.1,1h-6.4c0,0.9,0.3,1.7,0.9,2.2c0.5,0.4,1.2,0.7,2.1,0.7c0.9,0,1.8-0.2,2.6-0.5
			l0.3,1.5c-0.9,0.4-2,0.6-3.2,0.6c-1.5,0-2.7-0.4-3.5-1.3c-0.8-0.9-1.3-2-1.3-3.5c0-1.4,0.4-2.7,1.2-3.6c0.8-1,1.9-1.5,3.4-1.5
			c1.4,0,2.4,0.5,3.1,1.5C-35.1,380-34.8,381.1-34.8,382.3z M-36.9,381.7c0-0.6-0.1-1.2-0.4-1.6c-0.4-0.6-0.9-0.9-1.7-0.9
			c-0.7,0-1.3,0.3-1.7,0.9c-0.4,0.5-0.6,1-0.6,1.7L-36.9,381.7L-36.9,381.7z"/>
	</g>
	<g>
		<g>
			<path class="st1" d="M-107.9,366c0,1.2-0.4,2.1-1.1,2.7c-0.7,0.5-1.6,0.8-2.8,0.8c-0.6,0-1.1,0-1.5-0.1V363
				c0.6-0.1,1.2-0.1,1.8-0.1c1.1,0,2,0.2,2.6,0.7C-108.3,364.2-107.9,365-107.9,366z M-109.1,366c0-0.8-0.2-1.3-0.6-1.8
				c-0.4-0.4-1-0.6-1.8-0.6c-0.3,0-0.6,0-0.8,0.1v4.9c0.1,0,0.4,0,0.7,0c0.8,0,1.4-0.2,1.9-0.7C-109.3,367.5-109.1,366.9-109.1,366z
				"/>
			<path class="st1" d="M-102.1,367c0,0.7-0.2,1.3-0.6,1.8c-0.4,0.5-1,0.7-1.7,0.7c-0.7,0-1.2-0.2-1.7-0.7c-0.4-0.5-0.6-1-0.6-1.7
				c0-0.7,0.2-1.3,0.6-1.8c0.4-0.5,1-0.7,1.7-0.7c0.7,0,1.2,0.2,1.7,0.7C-102.3,365.8-102.1,366.3-102.1,367z M-103.2,367.1
				c0-0.4-0.1-0.8-0.3-1.1c-0.2-0.4-0.5-0.6-0.9-0.6c-0.4,0-0.7,0.2-1,0.6c-0.2,0.3-0.3,0.7-0.3,1.1c0,0.4,0.1,0.8,0.3,1.1
				c0.2,0.4,0.5,0.6,1,0.6c0.4,0,0.7-0.2,0.9-0.6C-103.3,367.9-103.2,367.5-103.2,367.1z"/>
			<path class="st1" d="M-94.2,364.7l-1.5,4.7h-1l-0.6-2c-0.2-0.5-0.3-1-0.4-1.5h0c-0.1,0.5-0.2,1-0.4,1.5l-0.6,2h-1l-1.4-4.7h1.1
				l0.5,2.2c0.1,0.5,0.2,1,0.3,1.5h0c0.1-0.4,0.2-0.9,0.4-1.5l0.7-2.2h0.9l0.6,2.2c0.2,0.5,0.3,1.1,0.4,1.6h0c0.1-0.5,0.2-1,0.3-1.6
				l0.6-2.2L-94.2,364.7L-94.2,364.7z"/>
			<path class="st1" d="M-88.8,369.4h-1v-2.7c0-0.8-0.3-1.2-0.9-1.2c-0.3,0-0.6,0.1-0.8,0.3c-0.2,0.2-0.3,0.5-0.3,0.8v2.8h-1v-3.4
				c0-0.4,0-0.9,0-1.3h0.9l0,0.7h0c0.1-0.2,0.3-0.4,0.5-0.6c0.3-0.2,0.6-0.3,0.9-0.3c0.4,0,0.8,0.1,1.1,0.4c0.4,0.3,0.5,0.9,0.5,1.6
				V369.4z"/>
			<path class="st1" d="M-85.9,369.4h-1v-6.9h1V369.4z"/>
			<path class="st1" d="M-79.7,367c0,0.7-0.2,1.3-0.6,1.8c-0.4,0.5-1,0.7-1.7,0.7c-0.7,0-1.2-0.2-1.7-0.7c-0.4-0.5-0.6-1-0.6-1.7
				c0-0.7,0.2-1.3,0.6-1.8c0.4-0.5,1-0.7,1.7-0.7c0.7,0,1.2,0.2,1.7,0.7C-79.9,365.8-79.7,366.3-79.7,367z M-80.8,367.1
				c0-0.4-0.1-0.8-0.3-1.1c-0.2-0.4-0.5-0.6-0.9-0.6c-0.4,0-0.7,0.2-1,0.6c-0.2,0.3-0.3,0.7-0.3,1.1c0,0.4,0.1,0.8,0.3,1.1
				c0.2,0.4,0.5,0.6,1,0.6c0.4,0,0.7-0.2,0.9-0.6C-80.9,367.9-80.8,367.5-80.8,367.1z"/>
			<path class="st1" d="M-74.7,369.4h-0.9l-0.1-0.5h0c-0.3,0.4-0.8,0.6-1.4,0.6c-0.4,0-0.8-0.1-1.1-0.4c-0.2-0.3-0.4-0.6-0.4-1
				c0-0.6,0.2-1,0.7-1.3c0.5-0.3,1.2-0.5,2-0.4v-0.1c0-0.6-0.3-0.9-1-0.9c-0.5,0-0.9,0.1-1.2,0.3l-0.2-0.7c0.4-0.3,1-0.4,1.6-0.4
				c1.2,0,1.8,0.7,1.8,2v1.7C-74.7,368.8-74.7,369.2-74.7,369.4z M-75.8,367.8v-0.7c-1.2,0-1.7,0.3-1.7,1c0,0.2,0.1,0.4,0.2,0.6
				c0.1,0.1,0.3,0.2,0.5,0.2c0.2,0,0.4-0.1,0.6-0.2c0.2-0.1,0.3-0.3,0.4-0.6C-75.8,367.9-75.8,367.9-75.8,367.8z"/>
			<path class="st1" d="M-68.7,369.4h-0.9l0-0.8h0c-0.3,0.6-0.8,0.9-1.5,0.9c-0.6,0-1-0.2-1.4-0.7c-0.4-0.4-0.6-1-0.6-1.7
				c0-0.8,0.2-1.4,0.6-1.9c0.4-0.4,0.9-0.7,1.5-0.7c0.6,0,1.1,0.2,1.3,0.6h0v-2.7h1v5.6C-68.8,368.6-68.7,369-68.7,369.4z
				 M-69.8,367.4v-0.8c0-0.1,0-0.2,0-0.3c-0.1-0.3-0.2-0.5-0.4-0.6c-0.2-0.2-0.4-0.3-0.7-0.3c-0.4,0-0.7,0.2-0.9,0.5
				c-0.2,0.3-0.3,0.7-0.3,1.2c0,0.5,0.1,0.8,0.3,1.1c0.2,0.3,0.5,0.5,0.9,0.5c0.3,0,0.6-0.1,0.8-0.4
				C-69.9,368.1-69.8,367.8-69.8,367.4z"/>
			<path class="st1" d="M-59.8,367c0,0.7-0.2,1.3-0.6,1.8c-0.4,0.5-1,0.7-1.7,0.7c-0.7,0-1.2-0.2-1.7-0.7c-0.4-0.5-0.6-1-0.6-1.7
				c0-0.7,0.2-1.3,0.6-1.8c0.4-0.5,1-0.7,1.7-0.7c0.7,0,1.2,0.2,1.7,0.7C-60,365.8-59.8,366.3-59.8,367z M-60.8,367.1
				c0-0.4-0.1-0.8-0.3-1.1c-0.2-0.4-0.5-0.6-0.9-0.6c-0.4,0-0.7,0.2-1,0.6c-0.2,0.3-0.3,0.7-0.3,1.1c0,0.4,0.1,0.8,0.3,1.1
				c0.2,0.4,0.5,0.6,1,0.6c0.4,0,0.7-0.2,0.9-0.6C-60.9,367.9-60.8,367.5-60.8,367.1z"/>
			<path class="st1" d="M-54.1,369.4h-1v-2.7c0-0.8-0.3-1.2-1-1.2c-0.3,0-0.6,0.1-0.8,0.3s-0.3,0.5-0.3,0.8v2.8h-1v-3.4
				c0-0.4,0-0.9,0-1.3h0.9l0,0.7h0c0.1-0.2,0.3-0.4,0.5-0.6c0.3-0.2,0.6-0.3,1-0.3c0.4,0,0.8,0.1,1.1,0.4c0.4,0.3,0.5,0.9,0.5,1.6
				V369.4z"/>
			<path class="st1" d="M-47.1,365.5h-1.2v2.3c0,0.6,0.2,0.9,0.6,0.9c0.2,0,0.3,0,0.5,0l0,0.8c-0.2,0.1-0.5,0.1-0.8,0.1
				c-0.4,0-0.7-0.1-1-0.4c-0.2-0.3-0.3-0.7-0.3-1.3v-2.4h-0.7v-0.8h0.7v-0.9l1-0.3v1.2h1.2L-47.1,365.5L-47.1,365.5z"/>
			<path class="st1" d="M-41.5,369.4h-1v-2.7c0-0.8-0.3-1.3-0.9-1.3c-0.5,0-0.8,0.2-1,0.7c0,0.1,0,0.2,0,0.4v2.8h-1v-6.9h1v2.8h0
				c0.3-0.5,0.8-0.8,1.4-0.8c0.4,0,0.8,0.1,1.1,0.4c0.4,0.4,0.5,0.9,0.5,1.6C-41.5,366.6-41.5,369.4-41.5,369.4z"/>
			<path class="st1" d="M-35.8,366.9c0,0.2,0,0.3,0,0.5H-39c0,0.5,0.2,0.8,0.5,1.1c0.3,0.2,0.6,0.3,1,0.3c0.5,0,0.9-0.1,1.3-0.2
				l0.2,0.7c-0.4,0.2-1,0.3-1.6,0.3c-0.7,0-1.3-0.2-1.7-0.6c-0.4-0.4-0.6-1-0.6-1.7c0-0.7,0.2-1.3,0.6-1.8c0.4-0.5,1-0.8,1.6-0.8
				c0.7,0,1.2,0.3,1.5,0.8C-35.9,365.8-35.8,366.3-35.8,366.9z M-36.8,366.6c0-0.3-0.1-0.6-0.2-0.8c-0.2-0.3-0.5-0.4-0.8-0.4
				c-0.3,0-0.6,0.1-0.8,0.4c-0.2,0.2-0.3,0.5-0.3,0.8C-39,366.6-36.8,366.6-36.8,366.6z"/>
		</g>
	</g>
</g>
<text transform="matrix(1 0 0 1 -124.5304 378.7124)" class="st2 st3">coming soon</text>
</svg>
